<?xml version="1.0" encoding="UTF-8"?>
<svg width="480px" height="158px" viewBox="0 0 480 158" version="1.1" xmlns="http://www.w3.org/2000/svg" xmlns:xlink="http://www.w3.org/1999/xlink">
    <!-- Generator: Sketch 43.2 (39069) - http://www.bohemiancoding.com/sketch -->
    <title>ionic_baqend</title>
    <desc>Created with Sketch.</desc>
    <defs>
        <path d="M14.5,49.5 C14.8,48.7 15.1,47.8 15.3,46.9 L15.3,46.9 C17.1,41 14.2,38 12.4,35 L12.4,35 C10.4,31.6 15.4,27.7 14.8,33.8 L14.8,33.8 C14.1,40.7 18.2,42.7 18.2,42.7 L18.2,42.7 C13.3,36.5 17.6,33.6 17,29.5 L17,29.5 C16.7,27.3 14.8,27.1 13.7,26.4 L13.7,26.4 C13.4,26.2 13.1,25.8 13.1,25.2 L13.1,25.2 C13.1,24.4 13.9,23.3 14,23.2 L14,23.2 C14.1,23.1 14.6,22.7 14.7,23.5 L14.7,23.5 C14.8,24.2 15,24.4 15,24.4 L15,24.4 C15.1,24.5 15.2,24.6 15.3,24.7 L15.3,24.7 C17,25.7 19,26.7 18.1,32.3 L18.1,32.3 C17.1,38.7 19.7,39.3 19.7,39.3 L19.7,39.3 C19.7,39.3 18.1,37.2 19,33.7 L19,33.7 C20,30.2 19.7,27.2 17.8,24.6 L17.8,24.6 C15.8,22 22.3,18.7 20.7,24.7 L20.7,24.7 C19,31.1 21.6,31 21.6,31 L21.6,31 C21.6,31 19.7,30.6 21.6,25.8 L21.6,25.8 C24.5,18.3 18.3,18.9 19,16.3 L19,16.3 C19.6,14 22,15.7 22.4,17.9 L22.4,17.9 C22.8,12.3 17.7,15.2 19.6,9.7 L19.6,9.7 C22,2.7 19.1,0.1 19.1,0.1 L19.1,0.1 C20.5,3.9 18.8,9.5 17.2,11.5 L17.2,11.5 C16.2,12.8 14.7,14.6 12.6,13.7 L12.6,13.7 C8.2,11.8 12.6,8.6 12.6,8.6 L10.3,6 C8.9,7.9 8.4,9.6 9.3,13.7 L9.3,13.7 C9.9,16.7 5.7,15.1 4.1,13.9 L4.1,13.9 C0.4,11.2 0.7,5.5 0.7,5.5 L0.7,5.5 C0.1,7.9 0.6,13.1 4,16 L4,16 C6.2,17.9 5.2,20.4 4.2,23 L4.2,23 C3.4,25 2.5,27.1 3.3,28.9 L3.3,28.9 C3.5,25.3 5.3,22.8 6.4,22.4 L6.4,22.4 C7.2,22.1 7.7,22.9 6.9,25.2 L6.9,25.2 C4.2,33.2 9.6,34.4 9.6,34.4 L9.6,34.4 C8.1,33.4 7.1,31.9 7.7,28.3 L7.7,28.3 C8.4,25.2 9,24.1 9.5,24 L9.5,24 C10.9,23.9 9.3,27.6 9.3,27.6 L9.3,27.6 C9.3,27.6 11.8,25.2 10.4,22 L10.4,22 C10,21 10.2,20 10.8,19.8 L10.8,19.8 C11.4,19.6 12,20.1 12.2,20.9 L12.2,20.9 C12.5,22.4 11.6,25.1 10.3,26.8 L10.3,26.8 C7.4,30.4 9,32.1 9.5,32.4 L9.5,32.4 C10.4,33.6 10.3,35.2 10,36.5 L10,36.5 C7.6,42.1 11.9,43.5 11.9,43.5 L11.9,43.5 C9.1,42.1 9.4,36.4 12.1,39.2 L12.1,39.2 C14,41.2 13.5,45 13,47 L13,47 C13,47.1 12.9,47.2 12.9,47.4 L12.9,47.4 C8.9,58.7 15.4,60.3 15.4,60.3 L15.4,60.3 C11.8,57.5 13,54.1 14.5,49.5" id="path-1"></path>
        <polygon id="path-3" points="51 0 54.4 66.6 4.1 76.4 0.8 9.8"></polygon>
        <linearGradient x1="50.6794776%" y1="21.1508121%" x2="56.0686567%" y2="57.8221371%" id="linearGradient-5">
            <stop stop-color="#FFFF00" offset="0%"></stop>
            <stop stop-color="#F15A24" offset="100%"></stop>
        </linearGradient>
        <path d="M18.9,14.2 C19.5,11.9 22.2,13.4 22.4,14.4 L22.4,14.4 C22.5,12.8 20.3,12.7 19.3,11 L19.3,11 C18.2,9.2 21.7,4.3 20.1,0.1 L20.1,0.1 C20.8,3.2 18.6,12.2 13.9,12.5 L13.9,12.5 C9.9,12.8 9.7,7 9.9,5.5 L9.9,5.5 C9.3,6.2 9.5,7.8 9.7,9.3 L9.7,9.3 C10,11.4 10.2,13.6 8.5,14 L8.5,14 C6.7,14.3 2.4,12.5 0.9,7.7 L0.9,7.7 C1.2,13.6 7.8,14 5.3,18.4 L5.3,18.4 C5,19 4.4,20.7 4.2,21.9 L4.2,21.9 C4.2,21.9 6.5,15.7 7.3,18.8 L7.3,18.8 C8.1,21.9 14.5,11.4 13.2,18.2 L13.2,18.2 C13.6,17.5 15.6,14.2 15.6,17.3 L15.6,17.3 C15.6,20 16.9,21.2 16.9,21.2 L16.9,21.2 C17,16.5 20.3,17.7 21.1,18.4 L21.1,18.4 C21.1,17.4 18.1,17 18.9,14.2" id="path-6"></path>
        <polygon id="path-8" points="29.5 7.1 21.6 31.3 0.1 25 8 0.9"></polygon>
        <linearGradient x1="57.670068%" y1="28.6836358%" x2="28.857483%" y2="108.401023%" id="linearGradient-10">
            <stop stop-color="#FFFF00" offset="0%"></stop>
            <stop stop-color="#F8AB12" offset="46.95%"></stop>
            <stop stop-color="#F3711F" offset="82.85%"></stop>
            <stop stop-color="#F15A24" offset="100%"></stop>
        </linearGradient>
    </defs>
    <g id="Page-1" stroke="none" stroke-width="1" fill="none" fill-rule="evenodd">
        <g id="ionic_baqend">
            <g id="68747470733a2f2f63646e2e7261776769742e636f6d2f426171656e642f616e67756c6172322d737461727465722f6d61737465722f7372632f6173736574732f416e67756c61722b426171656e642e737667" transform="translate(173.000000, 33.000000)">
                <g id="Group" transform="translate(155.000000, 65.000000)">
                    <g id="Clipped">
                        <g>
                            <mask id="mask-2" fill="white">
                                <use xlink:href="#path-1"></use>
                            </mask>
                            <g id="path-1"></g>
                            <g id="Group" mask="url(#mask-2)">
                                <g transform="translate(-18.000000, -12.000000)" id="Shape-Clipped">
                                    <g>
                                        <mask id="mask-4" fill="white">
                                            <use xlink:href="#path-3"></use>
                                        </mask>
                                        <g id="path-3"></g>
                                        <polygon id="Shape" fill="url(#linearGradient-5)" mask="url(#mask-4)" points="51 0 54.4 66.6 4.1 76.4 0.8 9.8"></polygon>
                                    </g>
                                </g>
                            </g>
                        </g>
                    </g>
                    <g id="Clipped" transform="translate(0.000000, 2.000000)">
                        <g>
                            <mask id="mask-7" fill="white">
                                <use xlink:href="#path-6"></use>
                            </mask>
                            <g id="path-6"></g>
                            <g id="Group" mask="url(#mask-7)">
                                <g transform="translate(-3.000000, -5.000000)" id="Shape-Clipped">
                                    <g>
                                        <mask id="mask-9" fill="white">
                                            <use xlink:href="#path-8"></use>
                                        </mask>
                                        <g id="path-8"></g>
                                        <polygon id="Shape" fill="url(#linearGradient-10)" mask="url(#mask-9)" points="29.5 7.1 21.6 31.3 0.1 25 8 0.9"></polygon>
                                    </g>
                                </g>
                            </g>
                        </g>
                    </g>
                </g>
                <g id="Group" transform="translate(66.000000, 0.000000)" fill-rule="nonzero">
                    <path d="M0,14.4 C4,13.5 9.2,13.1 14.9,13.1 C21.2,13.1 27.3,13.9 32,17.9 C35.6,20.9 37.1,25.4 37.1,30.1 C37.1,36.1 34,41.9 27.3,44.8 L27.3,45.2 C35.1,47.4 39.3,53.9 39.3,61.3 C39.3,66.9 37.5,71.2 34.3,74.5 C30.3,78.9 23.5,81.3 12.2,81.3 C7.2,81.3 3,81 0,80.6 L0,14.4 L0,14.4 Z M13.1,41.1 L15.9,41.1 C20.6,41.1 24.2,37.1 24.2,31.6 C24.2,26.7 21.9,22.9 16.5,22.9 C15.1,22.9 13.9,23 13.1,23.3 L13.1,41.1 L13.1,41.1 Z M13.1,71 C13.9,71.2 14.8,71.2 16,71.2 C21.3,71.2 25.7,68 25.7,61.1 C25.7,54.4 21.1,50.9 15.9,50.8 L13.1,50.8 L13.1,71 L13.1,71 Z" id="Shape" fill="#272223"></path>
                    <path d="M64,80.8 L63.3,76 L63.1,76 C60.4,79.8 56.6,81.6 52.3,81.6 C44.9,81.6 39.4,75.4 39.4,66.7 C39.4,53.9 50.7,48.6 61.8,48.5 L61.8,47.4 C61.8,43.6 59.5,40.8 54.9,40.8 C51,40.8 47.8,41.8 44.9,43.6 L42.5,34.8 C45.2,33.2 50.9,31.1 57.7,31.1 C72.6,31.1 75,41.5 75,51.4 L75,69.6 C75,73.5 75.2,77.5 75.8,80.8 L64,80.8 L64,80.8 Z M62.2,57 C57.8,57.1 51.8,58.5 51.8,65.3 C51.8,70.2 54.5,72 56.5,72 C58.6,72 61,70.7 61.9,67.8 C62.1,67.1 62.2,66.3 62.2,65.5 L62.2,57 L62.2,57 Z" id="Shape" fill="#272223"></path>
                    <path d="M123.2,91.8 C116.8,89.4 109.7,86 104.2,83 C102.5,82.2 101.3,81.6 100.7,81.6 C86.3,81.6 78.6,68.6 78.6,46.6 C78.6,28.5 93,13.3 102.1,-7.10542736e-15 C109.2,12.7 123.4,30.5 123.4,45.9 C123.4,62.6 120.7,73 113.8,76.4 L113.8,76.9 C118.5,78.8 123.7,80.3 128.3,81.9 L123.2,91.8 L123.2,91.8 Z M109.8,46.5 C109.8,33.9 107.7,26 101.3,26 C95.4,26 92.4,34.1 92.4,46.8 C92.3,60.5 94.9,70.2 101.3,70.2 C107.3,70.2 109.8,60.5 109.8,46.5 L109.8,46.5 Z" id="Shape" fill="#600C0C"></path>
                    <path d="M137.6,61 C137.8,68.6 142.2,71.4 148,71.4 C151.7,71.4 155,70.6 157.3,69.8 L159.1,79.2 C155.7,80.5 150.6,81.4 145.6,81.4 C132.3,81.4 125,72.6 125,57.3 C125,40.9 133.5,31.1 144.6,31.1 C155.1,31.1 161.2,39.4 161.2,54.2 C161.2,57.7 161.1,59.6 160.8,61 L137.6,61 L137.6,61 Z M149.3,51.8 C149.3,45.5 147.7,40.6 143.8,40.6 C139.5,40.6 137.8,46.9 137.7,51.8 L149.3,51.8 L149.3,51.8 Z" id="Shape" fill="#272223"></path>
                    <path d="M163.6,46.6 C163.6,41.2 163.3,36.5 163.2,31.9 L174.5,31.9 L175.1,37.5 L175.3,37.5 C177.9,33.6 182.1,31.1 187.2,31.1 C196.5,31.1 200.2,38.5 200.2,49.4 L200.2,80.8 L187.1,80.8 L187.1,50.2 C187.1,46 186.1,42.1 182.3,42.1 C180.1,42.1 178.3,43.6 177.4,46.5 C177,47.5 176.7,49.1 176.7,51 L176.7,80.8 L163.6,80.8 L163.6,46.6 L163.6,46.6 Z" id="Shape" fill="#272223"></path>
                    <path d="M239.9,11.6 L239.9,66.3 C239.9,71 240.1,76.3 240.3,80.8 L229,80.8 L228.3,75.3 L228.1,75.3 C226.3,78.7 222.4,81.6 217.9,81.6 C207.5,81.6 202.7,70.1 202.7,56.4 C202.7,39.4 210.1,31.1 218.4,31.1 C222.7,31.1 225.4,33.2 226.6,36 L226.8,36 L226.8,11.6 L239.9,11.6 L239.9,11.6 Z M226.8,50.7 C226.8,49.8 226.8,48.8 226.7,47.8 C226.2,44.8 224.6,42.1 222,42.1 C217.4,42.1 215.7,48.8 215.7,56.7 C215.7,66 218.2,70.9 221.9,70.9 C223.5,70.9 225.4,70 226.4,66.6 C226.7,65.9 226.8,64.8 226.8,63.6 L226.8,50.7 L226.8,50.7 Z" id="Shape" fill="#272223"></path>
                </g>
                <path d="M159.5,77.5 C159.6,77.6 159.7,77.6 159.8,77.7 L159.8,77.9 C157.7,78.8 155.4,79.5 153.4,80.3 L155.6,85 C158.4,83.9 161.6,82.2 164,80.8 C164.7,80.4 165.3,80.1 165.6,80.1 C168.1,80.1 170.2,79.2 171.8,77.4 L159.5,77.4 L159.5,77.5 Z" id="Shape" fill="#600C0C" fill-rule="nonzero"></path>
                <polygon id="Shape" fill="#000000" fill-rule="nonzero" points="22 31 22 47.1 37.6 47.1 37.6 53 22 53 22 69.3 16 69.3 16 53 0.4 53 0.4 47.1 16 47.1 16 31"></polygon>
            </g>
            <g id="redux" fill-rule="nonzero" fill="#764ABC">
                <path d="M109.891139,105.498667 C115.727848,104.894667 120.155696,99.8613333 119.95443,93.8213333 C119.753165,87.7813333 114.721519,82.9493333 108.683544,82.9493333 L108.281013,82.9493333 C102.041772,83.1506667 97.2113924,88.3853333 97.4126582,94.6266667 C97.6139241,97.6466667 98.821519,100.264 100.632911,102.076 C93.7898734,115.565333 83.3240506,125.430667 67.6253165,133.685333 C56.9582278,139.322667 45.8886076,141.336 34.8189873,139.926667 C25.7620253,138.718667 18.7177215,134.692 14.2898734,128.048 C7.84936709,118.182667 7.24556962,107.512 12.6797468,96.8413333 C16.5037975,89.1906667 22.5417722,83.5533333 26.3658228,80.7346667 C25.5607595,78.1173333 24.3531646,73.688 23.7493671,70.4666667 C-5.43417722,91.6066667 -2.41518987,120.196 6.44050633,133.685333 C13.0822785,143.752 26.5670886,149.993333 41.4607595,149.993333 C45.4860759,149.993333 49.5113924,149.590667 53.5367089,148.584 C79.2987342,143.550667 98.821519,128.249333 109.891139,105.498667 L109.891139,105.498667 Z" id="Shape"></path>
                <path d="M145.313924,80.5333333 C130.017722,62.6146667 107.475949,52.7493333 81.7139241,52.7493333 L78.4936709,52.7493333 C76.6822785,49.1253333 72.8582278,46.7093333 68.6316456,46.7093333 L68.2291139,46.7093333 C61.9898734,46.9106667 57.1594937,52.1453333 57.3607595,58.3866667 C57.5620253,64.4266667 62.5936709,69.2586667 68.6316456,69.2586667 L69.0341772,69.2586667 C73.4620253,69.0573333 77.2860759,66.2386667 78.8962025,62.4133333 L82.5189873,62.4133333 C97.8151899,62.4133333 112.306329,66.8426667 125.388608,75.5 C135.451899,82.144 142.697468,90.8013333 146.722785,101.270667 C150.144304,109.726667 149.943038,117.981333 146.320253,125.028 C140.68481,135.698667 131.225316,141.537333 118.746835,141.537333 C110.696203,141.537333 103.048101,139.121333 99.0227848,137.309333 C96.8088608,139.322667 92.7835443,142.544 89.9658228,144.557333 C98.6202532,148.584 107.475949,150.798667 115.929114,150.798667 C135.250633,150.798667 149.540506,140.128 154.974684,129.457333 C160.811392,117.78 160.408861,97.6466667 145.313924,80.5333333 Z" id="Shape"></path>
                <path d="M43.0708861,108.921333 C43.2721519,114.961333 48.3037975,119.793333 54.3417722,119.793333 L54.7443038,119.793333 C60.9835443,119.592 65.8139241,114.357333 65.6126582,108.116 C65.4113924,102.076 60.3797468,97.244 54.3417722,97.244 L53.9392405,97.244 C53.5367089,97.244 52.9329114,97.244 52.5303797,97.4453333 C44.278481,83.7546667 40.856962,68.856 42.064557,52.7493333 C42.8696203,40.6693333 46.8949367,30.2 53.9392405,21.5426667 C59.7759494,14.0933333 71.0468354,10.4693333 78.6949367,10.268 C100.029114,9.86533333 109.086076,36.4413333 109.689873,47.112 C112.306329,47.716 116.734177,49.1253333 119.753165,50.132 C117.337975,17.516 97.2113924,0.604 77.8898734,0.604 C59.7759494,0.604 43.0708861,13.6906667 36.4291139,33.0186667 C27.1708861,58.7893333 33.2088608,83.5533333 44.4797468,103.082667 C43.4734177,104.492 42.8696203,106.706667 43.0708861,108.921333 L43.0708861,108.921333 Z" id="Shape"></path>
            </g>
        </g>
    </g>
</svg>